#!OML:ASF Y:\EmotionMaleHayes\Project 1\Capture day 1\Session 1\Male1.ASF
:FULLY-SPECIFIED
:DEGREES
1
root -32.8922 15.5034 -0.383892 104.53 81.2025 101.572
lowerback 12.9857 0.338748 -9.53367
upperback 3.45064 -0.689305 -4.8544
thorax -3.55579 -0.156459 0.35092
lowerneck -30.5128 -0.581118 -0.992263
upperneck 13.2062 -1.42068 5.43746
head 9.08119 -0.00510002 1.86074
rclavicle 1.23246e-014 2.14687e-014
rhumerus -58.7479 15.5514 -99.1539
rradius 95.3148
rwrist -17.1388
rhand -25.6665 -30.4004
rfingers 7.12502
rthumb 0.867821 -60.3784
lclavicle 1.23246e-014 2.14687e-014
lhumerus -46.1277 -34.9153 87.6377
lradius 82.3565
lwrist 20.8532
lhand -37.6926 -33.5441
lfingers 7.12502
lthumb -10.7427 -3.83881
rfemur -5.11215 -7.54329 3.3671
rtibia 61.7075
rfoot 179.611 15.4636
rtoes 15.7877
lfemur -23.7306 -4.16737 -35.2902
ltibia 41.0466
lfoot -22.9482 3.79345
ltoes 4.33635
2
root -32.4621 15.5116 -0.414449 101.899 80.3397 99.2289
lowerback 13.5181 0.286271 -10.6299
upperback 3.55162 -0.946995 -5.08253
thorax -3.69488 -0.259576 0.751661
lowerneck -30.2279 -0.303822 -0.827848
upperneck 12.956 -1.10312 5.46493
head 8.93702 0.148509 1.88943
rclavicle 6.16232e-015 3.65764e-014
rhumerus -59.7314 14.6286 -98.5179
rradius 92.8492
rwrist -16.4835
rhand -25.8663 -32.4915
rfingers 7.12502
rthumb 0.674875 -62.4702
lclavicle 6.16232e-015 3.65764e-014
lhumerus -42.6044 -34.1686 86.4544
lradius 82.8687
lwrist 19.6325
lhand -38.1349 -33.3261
lfingers 7.12502
lthumb -11.1694 -3.64344
rfemur -8.68018 -6.51128 2.90707
rtibia 59.0291
rfoot 175.747 7.02399
rtoes -3.0389
lfemur -21.0901 -3.99132 -36.7119
ltibia 40.5982
lfoot -24.5322 4.09332
ltoes 1.49069
3
root -32.0501 15.5371 -0.423094 100.9 79.0058 98.8962
lowerback 14.5381 0.203101 -12.2652
upperback 3.84418 -1.3681 -5.38048
thorax -3.8476 -0.43042 1.39988
lowerneck -30.1347 -0.0789001 -0.749916
upperneck 12.6126 -0.82216 5.53894
head 8.79231 0.28914 1.94244
rclavicle -1.21259e-014 -5.08889e-014
rhumerus -60.8382 13.9659 -98.0117
rradius 90.8622
rwrist -16.708
rhand -27.7742 -32.6973
rfingers 7.12502
rthumb -1.16783 -62.6739
lclavicle -1.21259e-014 -5.08889e-014
lhumerus -38.608 -33.3942 85.0076
lradius 83.6215
lwrist 19.3302
lhand -37.7784 -34.5103
lfingers 7.12502
lthumb -10.8256 -4.80934
rfemur -11.6643 -6.09696 1.89323
rtibia 56.9063
rfoot 175.072 3.26938
rtoes 19.5862
lfemur -18.0187 -3.52844 -38.3998
ltibia 39.9793
lfoot -26.0767 3.44485
ltoes 2.89196
4
root -31.676 15.5568 -0.395648 104.77 78.0005 103.071
lowerback 16.2586 -0.0845034 -13.7984
upperback 3.63686 -2.28535 -5.26364
thorax -4.8232 -0.792724 2.54056
lowerneck -30.0227 0.148678 -0.861902
upperneck 12.6314 -0.484016 5.58853
head 8.76966 0.444387 2.02899
rclavicle 3.37934e-015 -4.77083e-015
rhumerus -62.624 13.4762 -97.5031
rradius 89.3767
rwrist -17.2375
rhand -29.4838 -31.8117
rfingers 7.12502
rthumb -2.81892 -61.7728
lclavicle 3.37934e-015 -4.77083e-015
lhumerus -35.2177 -32.2106 84.1945
lradius 84.6283
lwrist 18.5122
lhand -37.2884 -34.9198
lfingers 7.12502
lthumb -10.3529 -5.19465
rfemur -15.3366 -7.20342 1.7289
rtibia 55.3664
rfoot 175.037 1.96143
rtoes 14.8949
lfemur -15.8961 -3.48293 -39.2212
ltibia 40.1221
lfoot -27.297 2.55418
ltoes 3.99102
5
root -31.2344 15.5844 -0.388355 106.885 77.7093 105.22
lowerback 16.487 -0.350045 -14.445
upperback 3.73488 -2.75247 -5.08755
thorax -4.72521 -1.01817 3.1719
lowerneck -30.0011 0.314009 -1.03481
upperneck 12.3481 -0.207813 5.76376
head 8.65773 0.583507 2.15666
rclavicle -3.57812e-015 -3.33958e-014
rhumerus -64.4082 12.7416 -96.8821
rradius 88.7032
rwrist -18.0141
rhand -30.4444 -30.6703
rfingers 7.12502
rthumb -3.74658 -60.6171
lclavicle -3.57812e-015 -3.33958e-014
lhumerus -31.6412 -31.0159 83.4582
lradius 85.5673
lwrist 16.4103
lhand -37.535 -34.7741
lfingers 7.12502
lthumb -10.5907 -5.06098
rfemur -18.9513 -7.41539 2.35374
rtibia 54.6808
rfoot 174.843 1.87993
rtoes 16.4747
lfemur -13.7671 -3.31535 -39.2442
ltibia 39.9526
lfoot -28.5308 2.00648
ltoes 4.56331
6
root -30.7677 15.6376 -0.394814 109.971 77.5146 108.459
lowerback 16.7165 -0.65132 -14.6572
upperback 3.88517 -3.18992 -4.87547
thorax -4.58761 -1.24143 3.60114
lowerneck -30.1432 0.437453 -0.901946
upperneck 12.1698 -0.00499855 5.35225
head 8.6057 0.636167 2.02137
rclavicle 1.45113e-014 3.33958e-014
rhumerus -66.5916 11.8394 -96.2068
rradius 88.8071
rwrist -18.7763
rhand -31.0135 -30.044
rfingers 7.12502
rthumb -4.29621 -59.9804
lclavicle 1.45113e-014 3.33958e-014
lhumerus -28.22 -29.791 83.0709
lradius 86.5558
lwrist 14.4909
lhand -37.6445 -34.8511
lfingers 7.12502
lthumb -10.6964 -5.14343
rfemur -21.8948 -7.8557 3.00197
rtibia 55.0416
rfoot 174.672 1.87284
rtoes 14.0968
lfemur -10.7796 -3.20924 -39.1405
ltibia 38.3394
lfoot -29.0515 0.922396
ltoes 4.7912
7
root -30.3431 15.6784 -0.41515 103.627 78.2437 101.321
lowerback 16.2449 -0.262573 -14.7973
upperback 3.52958 -2.68816 -4.64484
thorax -4.78904 -0.986813 3.82524
lowerneck -30.6468 0.535621 -0.986162
upperneck 12.6203 0.163628 5.20081
head 8.83268 0.701001 2.02028
rclavicle -2.28602e-014 -7.07673e-014
rhumerus -69.0178 11.0446 -95.5627
rradius 89.3389
rwrist -19.5115
rhand -30.7311 -30.4862
rfingers 7.12502
rthumb -4.02346 -60.4279
lclavicle -2.28602e-014 -7.07673e-014
lhumerus -25.3121 -28.5789 83.1891
lradius 87.7448
lwrist 13.1673
lhand -37.4975 -35.0862
lfingers 7.12502
lthumb -10.5546 -5.37124
rfemur -27.202 -5.67552 3.77752
rtibia 54.8562
rfoot 174.99 1.0849
rtoes 12.2239
lfemur -9.30785 -1.58107 -38.6813
ltibia 36.7487
lfoot -29.6166 1.40718
ltoes 2.72383
